<svg xmlns="http://www.w3.org/2000/svg" xmlns:xlink="http://www.w3.org/1999/xlink" viewBox="0,0,256,256" width="64px" height="64px"><g fill="none" fill-rule="nonzero" stroke="none" stroke-width="1" stroke-linecap="butt" stroke-linejoin="miter" stroke-miterlimit="10" stroke-dasharray="" stroke-dashoffset="0" font-family="none" font-weight="none" font-size="none" text-anchor="none" style="mix-blend-mode: normal"><g transform="scale(4,4)"><rect x="3" y="10" width="58" height="10" fill="#ffffff"></rect><rect x="3" y="27" width="58" height="10" fill="#ffffff"></rect><rect x="3" y="44" width="58" height="10" fill="#ffffff"></rect><path d="M61,21h-58c-0.552,0 -1,-0.448 -1,-1v-10c0,-0.552 0.448,-1 1,-1h58c0.552,0 1,0.448 1,1v10c0,0.552 -0.448,1 -1,1zM4,19h56v-8h-56z" fill="#000000"></path><path d="M61,38h-58c-0.552,0 -1,-0.448 -1,-1v-10c0,-0.552 0.448,-1 1,-1h58c0.552,0 1,0.448 1,1v10c0,0.552 -0.448,1 -1,1zM4,36h56v-8h-56z" fill="#000000"></path><path d="M7,51c-0.552,0 -1,-0.448 -1,-1v-2c0,-0.552 0.448,-1 1,-1c0.552,0 1,0.448 1,1v2c0,0.552 -0.448,1 -1,1zM12,51c-0.552,0 -1,-0.448 -1,-1v-2c0,-0.552 0.448,-1 1,-1c0.552,0 1,0.448 1,1v2c0,0.552 -0.448,1 -1,1zM17,51c-0.552,0 -1,-0.448 -1,-1v-2c0,-0.552 0.448,-1 1,-1c0.552,0 1,0.448 1,1v2c0,0.552 -0.448,1 -1,1zM22,51c-0.552,0 -1,-0.448 -1,-1v-2c0,-0.552 0.448,-1 1,-1c0.552,0 1,0.448 1,1v2c0,0.552 -0.448,1 -1,1zM27,51c-0.552,0 -1,-0.448 -1,-1v-2c0,-0.552 0.448,-1 1,-1c0.552,0 1,0.448 1,1v2c0,0.552 -0.448,1 -1,1zM32,51c-0.552,0 -1,-0.448 -1,-1v-2c0,-0.552 0.448,-1 1,-1c0.552,0 1,0.448 1,1v2c0,0.552 -0.448,1 -1,1zM37,51c-0.552,0 -1,-0.448 -1,-1v-2c0,-0.552 0.448,-1 1,-1c0.552,0 1,0.448 1,1v2c0,0.552 -0.448,1 -1,1zM42,51c-0.552,0 -1,-0.448 -1,-1v-2c0,-0.552 0.448,-1 1,-1c0.552,0 1,0.448 1,1v2c0,0.552 -0.448,1 -1,1zM47,51c-0.552,0 -1,-0.448 -1,-1v-2c0,-0.552 0.448,-1 1,-1c0.552,0 1,0.448 1,1v2c0,0.552 -0.448,1 -1,1zM52,51c-0.552,0 -1,-0.448 -1,-1v-2c0,-0.552 0.448,-1 1,-1c0.552,0 1,0.448 1,1v2c0,0.552 -0.448,1 -1,1zM57,51c-0.552,0 -1,-0.448 -1,-1v-2c0,-0.552 0.448,-1 1,-1c0.552,0 1,0.448 1,1v2c0,0.552 -0.448,1 -1,1z" fill="#000000"></path><path d="M61,55h-58c-0.552,0 -1,-0.448 -1,-1v-10c0,-0.552 0.448,-1 1,-1h58c0.552,0 1,0.448 1,1v10c0,0.552 -0.448,1 -1,1zM4,53h56v-8h-56z" fill="#000000"></path></g></g></svg>