<svg xmlns="http://www.w3.org/2000/svg" xmlns:xlink="http://www.w3.org/1999/xlink" viewBox="0,0,256,256" width="48px" height="48px"><g fill="none" fill-rule="nonzero" stroke="none" stroke-width="none" stroke-linecap="none" stroke-linejoin="none" stroke-miterlimit="10" stroke-dasharray="" stroke-dashoffset="0" font-family="none" font-weight="none" font-size="none" text-anchor="none" style="mix-blend-mode: normal"><g transform="scale(5.33333,5.33333)"><path d="M33.2,10h-16.2c-1.7,0 -3,1.3 -3,3v31c0,1.7 1.3,3 3,3h23c1.7,0 3,-1.3 3,-3v-24.2c0,-0.5 -0.2,-1 -0.6,-1.4l-7.8,-7.8c-0.4,-0.4 -0.9,-0.6 -1.4,-0.6z" fill="#ffffff" stroke="none" stroke-width="1" stroke-linecap="butt" stroke-linejoin="miter"></path><path d="M17.5,22.5h13" fill="none" stroke="#18193f" stroke-width="3" stroke-linecap="round" stroke-linejoin="miter"></path><path d="M17.5,29.5h9" fill="none" stroke="#18193f" stroke-width="3" stroke-linecap="round" stroke-linejoin="miter"></path><path d="M22.1,42.5h13.4c1.7,0 3,-1.3 3,-3v-25h-7c-1.1,0 -2,-0.9 -2,-2v-7" fill="none" stroke="#18193f" stroke-width="3" stroke-linecap="round" stroke-linejoin="round"></path><path d="M24,5.5h-11.5c-1.7,0 -3,1.3 -3,3v31c0,1.7 1.3,3 3,3h3.9" fill="none" stroke="#18193f" stroke-width="3" stroke-linecap="round" stroke-linejoin="round"></path><path d="M38.5,14.5l-9,-9" fill="none" stroke="#18193f" stroke-width="3" stroke-linecap="round" stroke-linejoin="round"></path></g></g></svg>